<?xml version="1.0" standalone="no"?>
<!DOCTYPE svg PUBLIC "-//W3C//DTD SVG 20010904//EN"
 "http://www.w3.org/TR/2001/REC-SVG-20010904/DTD/svg10.dtd">
<svg version="1.0" xmlns="http://www.w3.org/2000/svg"
 width="16.000000pt" height="16.000000pt" viewBox="0 0 16.000000 16.000000"
 preserveAspectRatio="xMidYMid meet">
<metadata>
Created by potrace 1.11, written by Peter Selinger 2001-2013
</metadata>
<g transform="translate(0.000000,16.000000) scale(0.005333,-0.005333)"
fill="#000000" stroke="none">
<path d="M430 2471 c0 -28 1 -28 66 -34 97 -7 196 -59 269 -140 l56 -62 -3
-750 -3 -750 -25 -49 c-32 -64 -76 -87 -176 -94 -74 -5 -74 -5 -74 -33 l0 -29
343 2 342 3 3 26 c3 26 2 26 -76 31 -94 5 -148 29 -177 79 -19 33 -20 54 -22
719 -3 679 -3 685 17 660 10 -14 299 -367 642 -785 520 -635 628 -761 651
-763 l27 -3 0 853 c1 469 5 884 10 922 10 81 30 113 90 144 33 16 61 22 112
22 l68 0 0 30 0 30 -342 -2 -343 -3 0 -25 c0 -24 3 -25 81 -31 60 -5 92 -12
119 -29 71 -44 70 -34 73 -610 1 -283 1 -570 0 -638 l-3 -123 -595 730 -595
731 -267 0 -268 0 0 -29z"/>
</g>
</svg>
